<svg xmlns:xlink="http://www.w3.org/1999/xlink" xmlns="http://www.w3.org/2000/svg" width="36" height="36" viewBox="0 0 36 36" fill="none">
<path d="M27.5625 4.35938V1.05469C27.5625 0.463992 27.0985 0 26.5078 0H7.38281L5.27344 5.27344L0 7.38281V34.9453C0 35.5359 0.463992 36 1.05469 36H26.5078C27.0985 36 27.5625 35.5359 27.5625 34.9453L29.6719 11.3141L27.5625 4.35938Z" fill="url(#paint0_linear_250_468)"/>
<path d="M35.8523 4.88672C35.6626 4.54915 35.325 4.35938 34.9453 4.35938H27.5625V34.9453L35.8523 5.94141C36.0423 5.60384 36.0423 5.20305 35.8523 4.88672ZM20.1797 4.35938C18.435 4.35938 17.0156 5.7787 17.0156 7.52344C17.0156 8.1064 17.4874 8.57812 18.0703 8.57812C18.6533 8.57812 19.125 8.1064 19.125 7.52344C19.125 6.94153 19.5988 6.46875 20.1797 6.46875C20.7606 6.46875 21.2344 6.94153 21.2344 7.52344C21.2344 7.8994 21.0325 8.24955 20.705 8.43806C19.7307 9.00246 19.125 10.052 19.125 11.1778V11.7422C19.125 12.3251 19.5967 12.7969 20.1797 12.7969C20.7626 12.7969 21.2344 12.3251 21.2344 11.7422V11.1778C21.2344 10.8029 21.4362 10.4517 21.7617 10.2632C22.7381 9.69975 23.3438 8.64921 23.3438 7.52344C23.3438 5.7787 21.9245 4.35938 20.1797 4.35938ZM21.2344 15.9609C21.2344 15.3785 20.7622 14.9062 20.1797 14.9062C19.5972 14.9062 19.125 15.3785 19.125 15.9609C19.125 16.5434 19.5972 17.0156 20.1797 17.0156C20.7622 17.0156 21.2344 16.5434 21.2344 15.9609ZM20.1797 19.125C18.435 19.125 17.0156 20.5443 17.0156 22.2891C17.0156 22.872 17.4874 23.3438 18.0703 23.3438C18.6533 23.3438 19.125 22.872 19.125 22.2891C19.125 21.7072 19.5988 21.2344 20.1797 21.2344C20.7606 21.2344 21.2344 21.7072 21.2344 22.2891C21.2344 22.665 21.0325 23.0152 20.705 23.2037C19.7307 23.7681 19.125 24.8176 19.125 25.9434V26.5078C19.125 27.0908 19.5967 27.5625 20.1797 27.5625C20.7626 27.5625 21.2344 27.0908 21.2344 26.5078V25.9434C21.2344 25.5685 21.4362 25.2173 21.7617 25.0288C22.7381 24.4654 23.3438 23.4148 23.3438 22.2891C23.3438 20.5443 21.9245 19.125 20.1797 19.125ZM20.1797 29.6719C19.5972 29.6719 19.125 30.1441 19.125 30.7266C19.125 31.309 19.5972 31.7812 20.1797 31.7812C20.7622 31.7812 21.2344 31.309 21.2344 30.7266C21.2344 30.1441 20.7622 29.6719 20.1797 29.6719ZM7.38281 6.32812V0C7.10859 0 6.83437 0.105469 6.6446 0.316336L0.316477 6.64446C0.105469 6.83437 0 7.10859 0 7.38281H6.32812C6.91066 7.38281 7.38281 6.91059 7.38281 6.32812ZM13.8516 10.6875H5.27344C4.69048 10.6875 4.21875 11.1592 4.21875 11.7422C4.21875 12.3251 4.69048 12.7969 5.27344 12.7969H13.8516C14.4345 12.7969 14.9062 12.3251 14.9062 11.7422C14.9062 11.1592 14.4345 10.6875 13.8516 10.6875ZM13.8516 14.9062H5.27344C4.69048 14.9062 4.21875 15.378 4.21875 15.9609C4.21875 16.5439 4.69048 17.0156 5.27344 17.0156H13.8516C14.4345 17.0156 14.9062 16.5439 14.9062 15.9609C14.9062 15.378 14.4345 14.9062 13.8516 14.9062ZM13.8516 25.4531H5.27344C4.69048 25.4531 4.21875 25.9249 4.21875 26.5078C4.21875 27.0908 4.69048 27.5625 5.27344 27.5625H13.8516C14.4345 27.5625 14.9062 27.0908 14.9062 26.5078C14.9062 25.9249 14.4345 25.4531 13.8516 25.4531ZM13.8516 29.6719H5.27344C4.69048 29.6719 4.21875 30.1436 4.21875 30.7266C4.21875 31.3095 4.69048 31.7812 5.27344 31.7812H13.8516C14.4345 31.7812 14.9062 31.3095 14.9062 30.7266C14.9062 30.1436 14.4345 29.6719 13.8516 29.6719Z" fill="url(#paint1_linear_250_468)"/>
<defs>
<linearGradient id="paint0_linear_250_468" x1="14.8359" y1="36" x2="14.8359" y2="0" gradientUnits="userSpaceOnUse">
<stop stop-color="#A93AFF"/>
<stop offset="1" stop-color="#FF81FF"/>
</linearGradient>
<linearGradient id="paint1_linear_250_468" x1="17.9974" y1="31.7685" x2="17.9974" y2="0" gradientUnits="userSpaceOnUse">
<stop stop-color="#FFBEF9"/>
<stop offset="1" stop-color="#FFF1FF"/>
</linearGradient>
</defs>
</svg>